<?xml version="1.0" standalone="no"?>
<!DOCTYPE svg PUBLIC "-//W3C//DTD SVG 20010904//EN"
 "http://www.w3.org/TR/2001/REC-SVG-20010904/DTD/svg10.dtd">
<svg version="1.0" xmlns="http://www.w3.org/2000/svg"
 width="1080.000000pt" height="1080.000000pt" viewBox="0 0 1080.000000 1080.000000"
 preserveAspectRatio="xMidYMid meet">

<g transform="translate(0.000000,1080.000000) scale(0.100000,-0.100000)"
fill="#000000" stroke="none">
<path d="M0 5400 l0 -5400 5400 0 5400 0 0 5400 0 5400 -5400 0 -5400 0 0
-5400z m7505 3500 c75 -36 82 -61 94 -325 34 -711 56 -1198 76 -1660 8 -192
17 -377 20 -410 3 -33 10 -172 15 -310 6 -137 17 -392 25 -565 8 -173 19 -427
25 -565 6 -137 15 -326 20 -420 19 -346 32 -696 26 -729 -4 -18 -18 -44 -32
-57 -25 -23 -32 -24 -196 -27 -94 -2 -182 -1 -195 3 l-23 5 0 230 0 230 24 11
c39 18 50 78 42 242 -12 260 -45 1109 -50 1307 -14 476 -27 885 -36 1130 -5
146 -12 360 -15 475 -17 606 -24 748 -39 769 -7 12 -32 30 -55 40 -38 18 -43
18 -84 2 -30 -11 -68 -41 -118 -94 -318 -335 -731 -762 -1016 -1052 l-173
-176 0 -449 c0 -408 -2 -453 -18 -485 -23 -47 -64 -58 -134 -36 -77 25 -123
59 -147 108 -20 43 -21 56 -21 495 0 448 0 450 23 491 12 23 99 119 192 215
94 95 337 344 540 552 204 209 452 463 551 565 100 102 240 245 310 318 71 73
144 142 162 154 68 42 144 49 207 18z m-3060 -1990 c15 -6 45 -29 68 -53 l42
-42 -3 -287 c-2 -254 -4 -288 -18 -288 -34 0 -75 -45 -179 -197 -60 -87 -132
-192 -160 -233 -28 -41 -110 -160 -182 -265 -71 -104 -165 -242 -208 -305 -44
-63 -114 -167 -158 -230 -86 -126 -133 -195 -298 -435 -61 -88 -133 -194 -161
-236 -54 -81 -93 -109 -150 -109 -42 0 -92 53 -251 263 -92 120 -120 164 -124
194 -6 42 12 92 46 133 11 14 84 108 161 210 260 340 430 564 523 685 51 66
150 197 222 290 71 94 132 172 135 175 4 3 17 21 31 40 81 119 511 668 530
677 52 25 92 29 134 13z m530 -499 c464 -450 1001 -970 1235 -1196 135 -130
258 -249 540 -522 63 -61 178 -172 255 -247 83 -80 148 -136 160 -136 45 -1
46 -4 43 -246 l-3 -229 -108 -3 c-158 -4 -166 0 -286 125 -106 111 -267 276
-616 633 -110 113 -347 355 -525 539 -179 184 -413 425 -520 535 -107 111
-253 260 -323 332 l-127 131 0 260 c0 143 3 263 7 266 8 8 52 -32 268 -242z
m-2412 -3246 c43 -115 105 -280 138 -366 32 -85 59 -158 59 -162 0 -4 -39 -7
-88 -7 l-87 0 -30 85 -29 86 -136 -3 -135 -3 -29 -82 -28 -83 -84 0 c-97 0
-96 -1 -59 87 13 32 53 137 89 233 81 220 154 409 162 421 3 6 45 8 92 7 l86
-3 79 -210z m857 145 l0 -70 -197 -2 -198 -3 -1 -65 c-1 -36 2 -70 7 -76 7 -9
56 -10 172 -7 189 7 190 6 185 -79 l-3 -53 -180 -5 -179 -5 1 -85 0 -85 199
-5 199 -5 3 -67 3 -68 -291 0 -290 0 0 375 0 375 285 0 285 0 0 -70z m288 -87
c28 -87 63 -200 79 -250 15 -51 31 -93 34 -93 4 0 28 66 54 148 25 81 61 192
79 247 l33 100 86 3 c48 1 87 -1 87 -5 0 -4 -55 -173 -122 -375 l-122 -368
-96 0 -96 0 -64 198 c-35 108 -89 275 -120 370 -31 95 -54 175 -51 177 2 3 41
5 87 5 l82 0 50 -157z m720 -220 l2 -373 -90 0 -90 0 0 368 c0 203 3 372 7
376 4 4 43 5 88 4 l80 -3 3 -372z m317 200 c86 -267 100 -308 109 -313 6 -4
55 138 140 415 l22 70 87 3 c62 2 87 -1 87 -9 0 -7 -52 -170 -116 -363 -64
-193 -117 -357 -120 -363 -2 -9 -32 -13 -102 -13 l-99 0 -12 43 c-7 23 -57
179 -111 347 -55 168 -102 317 -106 333 l-6 27 85 0 86 0 56 -177z m713 -200
l2 -373 -87 0 -88 0 2 372 c2 205 3 374 3 376 0 2 37 2 83 0 l82 -3 3 -372z
m732 307 l0 -70 -195 0 -196 0 3 -76 3 -77 160 -3 c88 -1 168 -3 178 -3 14 -1
17 -11 17 -66 l0 -65 -180 0 -180 0 0 -90 0 -90 200 0 200 0 0 -70 0 -70 -287
2 -288 3 -3 360 c-1 198 0 366 3 372 3 10 69 13 285 13 l280 0 0 -70z m340 30
c14 -22 43 -68 65 -103 22 -34 60 -96 85 -137 25 -41 64 -104 87 -140 l43 -65
0 243 0 243 83 -3 c45 -2 81 -6 80 -10 -2 -5 -3 -172 -3 -373 l0 -365 -84 0
-85 0 -97 158 c-164 264 -204 326 -204 316 -1 -5 0 -114 0 -241 l1 -233 -80 0
-81 0 -2 371 c-2 204 -1 373 1 375 2 2 41 4 86 4 l81 0 24 -40z m1102 7 c67
-33 111 -80 147 -157 20 -44 26 -75 29 -153 7 -157 -33 -269 -121 -338 -77
-61 -123 -70 -348 -67 l-194 3 -3 360 c-1 198 0 366 3 373 4 11 48 13 217 10
210 -3 214 -3 270 -31z m739 -77 c48 -128 76 -204 94 -250 8 -19 41 -107 74
-195 33 -88 63 -168 66 -177 7 -16 -1 -18 -83 -18 l-90 0 -28 83 -29 82 -132
3 -132 3 -14 -28 c-7 -15 -22 -54 -32 -85 l-19 -58 -88 0 -88 0 13 33 c7 17
71 186 142 375 l129 343 89 -3 89 -3 39 -105z m-5921 -925 c31 -16 65 -69 55
-85 -11 -18 -33 -10 -55 19 -39 56 -109 54 -149 -4 -20 -30 -23 -44 -19 -96 4
-53 9 -66 33 -87 51 -43 140 -14 147 48 3 23 0 25 -45 28 -39 3 -48 6 -45 20
3 14 15 17 72 17 l69 0 0 -79 c0 -56 -4 -81 -13 -84 -7 -3 -16 2 -21 9 -6 11
-16 9 -49 -10 -47 -26 -84 -24 -138 9 -41 25 -62 73 -62 140 0 104 55 170 141
170 28 0 63 -7 79 -15z m961 -23 c32 -35 38 -72 13 -72 -8 0 -31 16 -50 36
-30 33 -38 36 -71 31 -59 -10 -77 -36 -81 -117 -4 -66 -3 -71 26 -100 50 -49
115 -36 142 30 15 36 50 42 50 9 0 -63 -88 -128 -154 -113 -77 16 -116 74
-116 170 0 113 52 168 154 161 51 -3 63 -8 87 -35z m1069 11 c35 -32 44 -75
18 -81 -11 -2 -22 6 -29 21 -21 46 -85 61 -119 27 -37 -37 -18 -61 66 -79 91
-20 125 -62 103 -128 -11 -35 -41 -56 -96 -68 -66 -14 -143 36 -143 91 0 33
37 33 50 0 11 -30 39 -46 77 -46 56 0 94 50 60 79 -8 6 -42 18 -78 27 -81 20
-99 36 -99 86 0 30 7 46 29 69 25 24 37 29 80 29 41 0 56 -5 81 -27z m2378
-140 c-52 -142 -56 -148 -82 -148 -27 0 -30 6 -78 135 -68 185 -66 172 -34
168 25 -3 31 -12 67 -117 21 -63 39 -116 39 -118 0 -2 3 -3 8 -3 4 0 23 52 42
116 26 87 40 118 55 124 11 4 24 4 29 0 5 -5 -14 -72 -46 -157z m1734 16 c68
-188 64 -171 32 -167 -22 2 -30 11 -42 46 l-14 42 -58 0 -59 0 -12 -41 c-12
-40 -44 -66 -62 -50 -8 8 101 302 116 313 6 3 19 3 30 -1 15 -6 33 -44 69
-142z m-6444 -1 c29 -79 52 -149 52 -155 0 -7 -9 -13 -21 -13 -14 0 -26 13
-40 45 l-20 46 -56 -3 c-56 -3 -56 -3 -71 -45 -16 -42 -49 -64 -59 -38 -2 8
17 72 45 142 27 70 52 136 55 146 4 11 17 17 35 17 27 0 30 -5 80 -142z m665
136 c3 -3 3 -12 0 -20 -4 -11 -27 -14 -94 -14 l-89 0 0 -45 0 -45 85 0 c78 0
85 -2 85 -20 0 -18 -7 -20 -85 -20 l-85 0 0 -50 0 -49 92 -3 c79 -3 93 -6 96
-20 3 -16 -8 -18 -117 -18 l-121 0 0 155 0 155 113 0 c63 0 116 -3 120 -6z
m182 -109 l70 -115 3 115 c3 115 3 115 27 115 l25 0 0 -155 0 -155 -29 0 c-30
0 -49 25 -150 192 -9 16 -19 28 -23 28 -5 0 -8 -49 -8 -110 0 -103 -1 -110
-20 -110 -19 0 -20 7 -20 155 l0 155 28 0 c24 0 35 -13 97 -115z m555 -40 l0
-155 -25 0 -25 0 0 155 0 155 25 0 25 0 0 -155z m224 113 c9 -24 34 -92 56
-152 22 -60 40 -110 40 -112 0 -2 -11 -4 -25 -4 -19 0 -28 9 -44 45 l-20 45
-55 0 -54 0 -18 -45 c-13 -37 -21 -45 -41 -45 -16 0 -23 5 -21 13 3 6 29 76
58 155 51 135 55 142 81 142 23 0 30 -7 43 -42z m466 22 c0 -19 -7 -20 -95
-20 l-95 0 0 -45 0 -45 85 0 c78 0 85 -2 85 -20 0 -18 -7 -20 -85 -20 l-85 0
0 -50 0 -50 95 0 c88 0 95 -1 95 -20 0 -19 -7 -20 -117 -20 l-118 0 0 155 0
155 118 0 c110 0 117 -1 117 -20z m568 3 c-2 -13 -16 -19 -52 -23 l-48 -5 1
-132 2 -133 -25 0 -25 0 -3 133 -3 132 -45 3 c-48 3 -66 14 -56 31 5 7 53 11
132 11 114 0 125 -2 122 -17z m171 -45 c92 -252 90 -246 71 -251 -25 -6 -34 2
-52 48 l-16 40 -57 0 -58 0 -16 -42 c-12 -34 -20 -43 -38 -43 -13 0 -23 5 -23
10 0 6 23 70 50 143 28 72 53 138 55 145 2 6 17 12 33 12 25 0 30 -6 51 -62z
m321 42 c0 -17 -7 -20 -50 -20 -33 0 -50 -4 -51 -12 0 -7 -2 -67 -2 -133 -2
-119 -2 -120 -25 -120 -24 0 -24 1 -25 130 l-2 130 -52 3 c-45 3 -53 6 -53 23
0 18 8 19 130 19 123 0 130 -1 130 -20z m198 -123 c29 -78 52 -148 52 -155 0
-6 -10 -12 -23 -12 -18 0 -26 9 -37 43 l-15 42 -60 0 -60 0 -13 -42 c-11 -35
-18 -43 -38 -43 -13 0 -24 4 -24 9 0 5 23 69 50 143 28 73 53 139 55 146 2 6
17 12 33 12 28 0 30 -4 80 -143z m142 8 l0 -134 78 -3 c60 -2 77 -6 77 -18 0
-12 -19 -16 -102 -18 l-103 -3 0 156 0 155 25 0 25 0 0 -135z m504 114 c55
-43 71 -139 37 -215 -29 -63 -51 -74 -153 -74 l-88 0 0 155 0 155 89 0 c74 0
92 -3 115 -21z m339 7 c9 -23 -2 -26 -95 -26 l-88 0 0 -45 0 -45 85 0 c78 0
85 -2 85 -20 0 -18 -7 -20 -85 -20 l-85 0 0 -50 0 -50 95 0 c88 0 95 -1 95
-20 0 -19 -7 -20 -120 -20 l-120 0 0 155 0 155 114 0 c88 0 115 -3 119 -14z
m527 -141 l0 -155 -25 0 -25 0 0 155 0 155 25 0 25 0 0 -155z m131 36 c41
-122 46 -132 53 -110 3 8 22 62 42 122 33 96 39 107 60 107 13 0 24 -6 23 -12
0 -7 -24 -76 -52 -153 -51 -135 -54 -140 -81 -140 -28 0 -31 4 -82 145 -30 80
-54 149 -54 153 0 5 12 7 27 5 24 -3 29 -12 64 -117z m277 -33 c-3 -150 -3
-153 -25 -156 l-23 -3 0 155 0 156 25 0 26 0 -3 -152z m297 132 c0 -12 -18
-16 -92 -18 l-93 -3 0 -44 0 -45 85 0 c78 0 85 -2 85 -20 0 -18 -7 -20 -85
-20 l-85 0 0 -50 0 -50 95 0 c88 0 95 -1 95 -20 0 -19 -7 -20 -120 -20 l-120
0 0 155 0 156 118 -3 c96 -2 117 -6 117 -18z m181 -94 l69 -114 3 114 c3 114
3 114 27 114 l25 0 0 -155 0 -155 -29 0 c-27 0 -36 10 -97 110 -37 61 -69 108
-72 105 -2 -2 -4 -52 -3 -110 l2 -105 -25 0 -26 0 0 155 0 155 29 0 c26 0 35
-11 97 -114z m383 99 c38 -19 61 -71 61 -140 0 -62 -9 -86 -48 -127 -25 -27
-30 -28 -119 -28 l-94 0 2 155 1 155 84 0 c55 0 95 -5 113 -15z"/>
<path d="M2382 3154 c-48 -126 -79 -220 -75 -226 2 -5 42 -8 89 -8 93 0 96 3
69 62 -8 18 -27 71 -43 117 -28 81 -29 82 -40 55z"/>
<path d="M7320 3005 l0 -237 93 4 c123 5 162 24 200 98 27 51 28 61 24 148 -4
83 -8 98 -33 135 -44 62 -78 78 -189 84 l-95 6 0 -238z"/>
<path d="M8195 3058 c-21 -62 -40 -119 -43 -125 -3 -10 19 -13 88 -13 70 0 91
3 88 13 -3 6 -22 63 -43 125 -20 61 -40 112 -44 112 -4 0 -24 -51 -46 -112z"/>
<path d="M8497 2250 c-33 -78 -33 -80 13 -80 46 0 45 -4 15 80 l-13 35 -15
-35z"/>
<path d="M2046 2237 c-23 -60 -21 -67 19 -67 19 0 35 4 35 10 0 20 -24 100
-31 100 -3 0 -14 -19 -23 -43z"/>
<path d="M3707 2233 c-9 -27 -17 -51 -17 -55 0 -5 18 -8 41 -8 35 0 40 3 34
18 -3 9 -12 34 -18 55 -7 20 -14 37 -17 37 -4 0 -14 -21 -23 -47z"/>
<path d="M4906 2234 c-21 -63 -21 -64 19 -64 39 0 42 7 24 61 -18 53 -25 54
-43 3z"/>
<path d="M5397 2238 c-24 -63 -23 -68 24 -68 35 0 40 3 34 18 -4 9 -12 31 -17
47 -17 48 -24 49 -41 3z"/>
<path d="M5990 2195 l0 -116 56 3 c48 3 60 7 77 29 27 37 33 108 13 147 -21
40 -44 52 -100 52 l-46 0 0 -115z"/>
<path d="M8130 2195 l0 -115 56 0 c56 0 71 8 92 47 17 30 15 108 -3 142 -17
35 -32 41 -96 41 l-49 0 0 -115z"/>
</g>
</svg>
